<?xml version="1.0" standalone="no"?>
<!DOCTYPE svg PUBLIC "-//W3C//DTD SVG 20010904//EN"
 "http://www.w3.org/TR/2001/REC-SVG-20010904/DTD/svg10.dtd">
<svg version="1.0" xmlns="http://www.w3.org/2000/svg"
 width="360.000000pt" height="360.000000pt" viewBox="0 0 360.000000 360.000000"
 preserveAspectRatio="xMidYMid meet">
<metadata>
Created by potrace 1.11, written by Peter Selinger 2001-2013
</metadata>
<g transform="translate(0.000000,360.000000) scale(0.100000,-0.100000)"
fill="#000000" stroke="none">
<path d="M511 3377 c-23 -11 -40 -22 -37 -24 2 -3 -4 -13 -15 -24 -11 -11 -17
-24 -14 -29 3 -4 -1 -10 -7 -12 -10 -4 -13 -305 -13 -1484 0 -1478 0 -1479 21
-1511 26 -41 62 -70 99 -79 29 -7 2458 -8 2485 -1 33 9 56 21 76 41 51 51 49
2 50 1037 l1 966 -481 0 c-472 0 -576 4 -576 24 0 6 -4 7 -10 4 -5 -3 -10 -3
-10 2 0 4 -14 23 -30 42 -16 18 -27 37 -24 42 3 5 2 9 -3 9 -4 0 -8 229 -7
508 l1 509 -732 0 c-707 0 -734 -1 -774 -20z"/>
<path d="M2253 2907 l0 -414 413 0 c373 0 412 2 404 16 -15 27 -150 161 -162
161 -6 0 -9 2 -6 5 7 7 -190 205 -203 205 -6 0 -7 5 -4 10 3 6 -4 14 -17 19
-13 6 -20 10 -16 10 3 1 -8 16 -25 34 -18 18 -35 31 -39 29 -5 -2 -8 1 -8 7 0
12 -99 111 -112 111 -5 0 -8 3 -5 8 2 4 -23 32 -55 64 -32 31 -58 53 -59 50 0
-4 -4 3 -10 16 -5 13 -13 21 -18 17 -5 -3 -12 4 -16 14 -3 11 -15 23 -26 26
-10 4 -19 11 -19 16 0 5 -4 9 -8 9 -5 0 -9 -186 -9 -413z"/>
</g>
</svg>
